<?xml version="1.0" encoding="utf-8" standalone="no"?>
<!DOCTYPE svg PUBLIC "-//W3C//DTD SVG 1.1//EN" "http://www.w3.org/Graphics/SVG/1.1/DTD/svg11-flat-20030114.dtd">
<!-- Created by SVGDeveloper 1.0 -->
<svg width="200" height="200" version="1.1" xmlns="http://www.w3.org/2000/svg" xmlns:xlink="http://www.w3.org/1999/xlink">
<g id="eyeBrow" transform="matrix(0.4519999,0,0,0.216,-51.80458,13.54577)" xmlns="http://www.w3.org/2000/svg">
		<path id="leftEyeBrow" d="M 307.94524,247.20445 C 295.24241,239.58410 277.53849,240.15372 256.63648,249.95120 L 252.29329,259.10709 C 276.27445,248.20348 287.70921,246.88537 306.74756,257.76679 L 307.94524,247.20445 z " sodipodi:nodetypes="ccccc" style="fill:#000000;fill-opacity:1.0000000;fill-rule:nonzero;stroke:none;stroke-width:1.0000000px;stroke-linecap:butt;stroke-linejoin:miter;stroke-opacity:1.0000000" transform="matrix(0.6969999,-0.7329999,0.1529999,0.6349999,42.30769,306.2579)" xmlns:sodipodi="http://inkscape.sourceforge.net/DTD/sodipodi-0.dtd" />
		<path id="rightEyeBrow" d="M 400.36604,252.05101 C 386.37657,246.37400 369.06622,246.97147 350.41207,254.61588 L 347.92734,261.61873 C 369.39542,253.10459 380.39028,251.99614 401.25154,260.09422 L 400.36604,252.05101 z " sodipodi:nodetypes="ccccc" style="fill:#000000;fill-opacity:1.0000000;fill-rule:nonzero;stroke:none;stroke-width:1.0000000px;stroke-linecap:butt;stroke-linejoin:miter;stroke-opacity:1.0000000" transform="matrix(0.698,0.681,-0.202,0.906,164.745,-231.342)" xmlns:sodipodi="http://inkscape.sourceforge.net/DTD/sodipodi-0.dtd" />
	</g>

	<g id="leftEye" transform="matrix(0.06999999,0,0,0.079,74.94467,54.5048)" xmlns="http://www.w3.org/2000/svg">
		<path d="M 150.72359,389.13020 C 133.47812,442.12379 43.592343,456.93217 -15.808342,456.93217 C -75.209024,456.93217 -116.53545,438.38875 -160.78345,390.56733 C -189.12601,359.93586 -66.586290,304.08282 -7.1856078,304.08282 C 52.215073,304.08282 32.879563,298.77149 150.72359,389.13020 z " sodipodi:nodetypes="csssc" style="opacity:1.0000000;fill:#f6f0cd;fill-opacity:1.0000000;fill-rule:nonzero;stroke:#000000;stroke-width:15.794737;stroke-miterlimit:4.0000000;stroke-dashoffset:0.00000000;stroke-opacity:1.0000000" xmlns:sodipodi="http://inkscape.sourceforge.net/DTD/sodipodi-0.dtd" />
		<g id="leftEyeball">
			<path d="M -173.89180 302.90289 A 45.269352 45.269352 0 1 1  -264.43050,302.90289 A 45.269352 45.269352 0 1 1  -173.89180 302.90289 z" sodipodi:cx="-219.16115" sodipodi:cy="302.90289" sodipodi:rx="45.269352" sodipodi:ry="45.269352" sodipodi:type="arc" style="opacity:1.0000000;fill:#5e583a;fill-opacity:1.0000000;fill-rule:nonzero;stroke:#000000;stroke-width:3.3750000;stroke-miterlimit:4.0000000;stroke-dasharray:none;stroke-dashoffset:0.00000000;stroke-opacity:1.0000000" transform="matrix(1.459078,0.000000,0.000000,1.459078,316.1803,-60.01418)" xmlns:sodipodi="http://inkscape.sourceforge.net/DTD/sodipodi-0.dtd" />
			<path d="M -327.66388 225.29829 A 19.401152 19.401152 0 1 1  -366.46618,225.29829 A 19.401152 19.401152 0 1 1  -327.66388 225.29829 z" sodipodi:cx="-347.06503" sodipodi:cy="225.29829" sodipodi:rx="19.401152" sodipodi:ry="19.401152" sodipodi:type="arc" style="opacity:1.0000000;fill:#1e1a0b;fill-opacity:1.0000000;fill-rule:nonzero;stroke:#000000;stroke-width:3.3750000;stroke-miterlimit:4.0000000;stroke-dasharray:none;stroke-dashoffset:0.00000000;stroke-opacity:1.0000000" transform="matrix(1.681467,0.000000,0.000000,1.681467,578.5485,3.112950)" xmlns:sodipodi="http://inkscape.sourceforge.net/DTD/sodipodi-0.dtd" />
			<g id="leftRetina" transform="matrix(0.379871,0.000000,0.000000,0.379871,78.65016,251.1349)">
				<path d="M -173.89180 299.31009 A 58.922016 33.053814 0 1 1  -291.73583,299.31009 A 58.922016 33.053814 0 1 1  -173.89180 299.31009 z" sodipodi:cx="-232.81381" sodipodi:cy="299.31009" sodipodi:rx="58.922016" sodipodi:ry="33.053814" sodipodi:type="arc" style="opacity:1.0000000;fill:#ffffff;fill-opacity:1.0000000;fill-rule:nonzero;stroke:none;stroke-width:3.3750000;stroke-miterlimit:4.0000000;stroke-dasharray:none;stroke-dashoffset:0.00000000;stroke-opacity:1.0000000" transform="translate(-70.41899,-63.23338)" xmlns:sodipodi="http://inkscape.sourceforge.net/DTD/sodipodi-0.dtd" />
				<path d="M -173.89180 299.31009 A 58.922016 33.053814 0 1 1  -291.73583,299.31009 A 58.922016 33.053814 0 1 1  -173.89180 299.31009 z" sodipodi:cx="-232.81381" sodipodi:cy="299.31009" sodipodi:rx="58.922016" sodipodi:ry="33.053814" sodipodi:type="arc" style="opacity:1.0000000;fill:#ffffff;fill-opacity:1.0000000;fill-rule:nonzero;stroke:none;stroke-width:3.3750000;stroke-miterlimit:4.0000000;stroke-dasharray:none;stroke-dashoffset:0.00000000;stroke-opacity:1.0000000" transform="matrix(0.549488,0.000000,0.000000,0.549488,-132.1908,127.6572)" xmlns:sodipodi="http://inkscape.sourceforge.net/DTD/sodipodi-0.dtd" />
			</g>
		</g>
	</g>

	<g id="rightEye" transform="matrix(0.06999999,0,0,0.079,117.275,54.17102)" xmlns="http://www.w3.org/2000/svg">
		<path d="M148.4345 373.3556C131.189 426.3492 43.59234 456.9322 -15.80834 456.9322C-75.20902 456.9322 -224.2095 437.7001 -170.6132 390.2332C-137.2678 360.7013 -87.14423 301.6296 -27.74355 301.6296C31.65713 301.6296 91.29115 305.8449 148.4345 373.3556Z" sodipodi:nodetypes="csssc" style="opacity:1.0000000;fill:#f6f0cd;fill-opacity:1.0000000;fill-rule:nonzero;stroke:#000000;stroke-width:15.794737;stroke-miterlimit:4.0000000;stroke-dashoffset:0.00000000;stroke-opacity:1.0000000" xmlns:sodipodi="http://inkscape.sourceforge.net/DTD/sodipodi-0.dtd" />
		<g id="rightEyeball">
			<path d="M -173.89180 302.90289 A 45.269352 45.269352 0 1 1  -264.43050,302.90289 A 45.269352 45.269352 0 1 1  -173.89180 302.90289 z" sodipodi:cx="-219.16115" sodipodi:cy="302.90289" sodipodi:rx="45.269352" sodipodi:ry="45.269352" sodipodi:type="arc" style="opacity:1.0000000;fill:#5e583a;fill-opacity:1.0000000;fill-rule:nonzero;stroke:#000000;stroke-width:3.3750000;stroke-miterlimit:4.0000000;stroke-dasharray:none;stroke-dashoffset:0.00000000;stroke-opacity:1.0000000" transform="matrix(1.459078,0.000000,0.000000,1.459078,316.1803,-60.01418)" xmlns:sodipodi="http://inkscape.sourceforge.net/DTD/sodipodi-0.dtd" />
			<path d="M -327.66388 225.29829 A 19.401152 19.401152 0 1 1  -366.46618,225.29829 A 19.401152 19.401152 0 1 1  -327.66388 225.29829 z" sodipodi:cx="-347.06503" sodipodi:cy="225.29829" sodipodi:rx="19.401152" sodipodi:ry="19.401152" sodipodi:type="arc" style="opacity:1.0000000;fill:#1e1a0b;fill-opacity:1.0000000;fill-rule:nonzero;stroke:#000000;stroke-width:3.3750000;stroke-miterlimit:4.0000000;stroke-dasharray:none;stroke-dashoffset:0.00000000;stroke-opacity:1.0000000" transform="matrix(1.681467,0.000000,0.000000,1.681467,578.5485,3.112950)" xmlns:sodipodi="http://inkscape.sourceforge.net/DTD/sodipodi-0.dtd" />
			<g id="rightRetina" transform="matrix(0.379871,0.000000,0.000000,0.379871,78.65016,251.1349)">
				<path d="M -173.89180 299.31009 A 58.922016 33.053814 0 1 1  -291.73583,299.31009 A 58.922016 33.053814 0 1 1  -173.89180 299.31009 z" sodipodi:cx="-232.81381" sodipodi:cy="299.31009" sodipodi:rx="58.922016" sodipodi:ry="33.053814" sodipodi:type="arc" style="opacity:1.0000000;fill:#ffffff;fill-opacity:1.0000000;fill-rule:nonzero;stroke:none;stroke-width:3.3750000;stroke-miterlimit:4.0000000;stroke-dasharray:none;stroke-dashoffset:0.00000000;stroke-opacity:1.0000000" transform="translate(-70.41899,-63.23338)" xmlns:sodipodi="http://inkscape.sourceforge.net/DTD/sodipodi-0.dtd" />
				<path d="M -173.89180 299.31009 A 58.922016 33.053814 0 1 1  -291.73583,299.31009 A 58.922016 33.053814 0 1 1  -173.89180 299.31009 z" sodipodi:cx="-232.81381" sodipodi:cy="299.31009" sodipodi:rx="58.922016" sodipodi:ry="33.053814" sodipodi:type="arc" style="opacity:1.0000000;fill:#ffffff;fill-opacity:1.0000000;fill-rule:nonzero;stroke:none;stroke-width:3.3750000;stroke-miterlimit:4.0000000;stroke-dasharray:none;stroke-dashoffset:0.00000000;stroke-opacity:1.0000000" transform="matrix(0.549488,0.000000,0.000000,0.549488,-132.1908,127.6572)" xmlns:sodipodi="http://inkscape.sourceforge.net/DTD/sodipodi-0.dtd" />
			</g>
		</g>
	</g>

</svg>